<svg width="16" height="16" viewBox="0 0 16 16" fill="none" xmlns="http://www.w3.org/2000/svg">
<path d="M15.4982 8.00007C15.4982 12.1422 12.1407 15.4999 7.99912 15.4999C3.85751 15.4999 0.5 12.1422 0.5 8.00007C0.5 3.85799 3.85751 0.500244 7.99912 0.500244C12.1407 0.500244 15.4982 3.85799 15.4982 8.00007Z" fill="white" stroke="#E9E9F0"/>
<path d="M15.9304 6.95556H9.04433V0.0677145C8.35172 -0.0225817 7.65032 -0.0225817 6.95771 0.0677145V6.95556H0.0704627C-0.0198255 7.64824 -0.0198255 8.3497 0.0704627 9.04238H6.95771V15.9302C7.65032 16.0205 8.35172 16.0205 9.04433 15.9302V9.04238H15.9316C16.0219 8.3497 16.0219 7.64824 15.9316 6.95556H15.9304Z" fill="#FF3B30"/>
<path d="M4.87148 3.82563V2.78222H3.82817V3.82563H2.78485V4.86904H3.82817V5.91244H4.87148V4.86904H5.91479V3.82563H4.87148Z" fill="#FF3B30"/>
<path d="M12.1735 3.82563V2.78222H11.1348V3.82563H10.0915V4.86904H11.1348V5.91244H12.1781V4.86904H13.2214V3.82563H12.1735Z" fill="#FF3B30"/>
<path d="M4.87148 11.1324V10.089H3.82817V11.1324H2.78485V12.1758H3.82817V13.2192H4.87148V12.1758H5.91479V11.1324H4.87148Z" fill="#FF3B30"/>
<path d="M12.1735 11.1324V10.089H11.1348V11.1324H10.0915V12.1758H11.1348V13.2192H12.1781V12.1758H13.2214V11.1324H12.1735Z" fill="#FF3B30"/>
</svg>
