<svg width="16" height="16" viewBox="0 0 16 16" fill="none" xmlns="http://www.w3.org/2000/svg">
<mask id="mask0_1_219" style="mask-type:alpha" maskUnits="userSpaceOnUse" x="0" y="0" width="16" height="16">
<path d="M15.4982 8.00007C15.4982 12.1422 12.1407 15.4999 7.99912 15.4999C3.85751 15.4999 0.5 12.1422 0.5 8.00007C0.5 3.85799 3.85751 0.500244 7.99912 0.500244C12.1407 0.500244 15.4982 3.85799 15.4982 8.00007Z" fill="white" stroke="#E9E9F0"/>
</mask>
<g mask="url(#mask0_1_219)">
<path d="M32.5332 -0.717007H-7.99661V0.924327H32.5332V-0.717007Z" fill="#BD3D44"/>
<path d="M32.5332 2.56433H-7.99661V4.20566H32.5332V2.56433Z" fill="#BD3D44"/>
<path d="M32.5332 5.847H-7.99661V7.48833H32.5332V5.847Z" fill="#BD3D44"/>
<path d="M32.5332 9.12833H-7.99661V10.7697H32.5332V9.12833Z" fill="#BD3D44"/>
<path d="M32.5332 12.411H-7.99661V14.0523H32.5332V12.411Z" fill="#BD3D44"/>
<path d="M32.5332 15.6923H-7.99661V17.3337H32.5332V15.6923Z" fill="#BD3D44"/>
<path d="M32.5332 0.924323H-7.99661V2.56566H32.5332V0.924323Z" fill="white"/>
<path d="M32.5332 4.20566H-7.99661V5.84699H32.5332V4.20566Z" fill="white"/>
<path d="M32.5332 7.48833H-7.99661V9.12966H32.5332V7.48833Z" fill="white"/>
<path d="M32.5332 10.7697H-7.99661V12.411H32.5332V10.7697Z" fill="white"/>
<path d="M32.5332 14.0523H-7.99661V15.6937H32.5332V14.0523Z" fill="white"/>
<path d="M8.2153 -3.99967H-7.99661V7.48699H8.2153V-3.99967Z" fill="#192F5D"/>
<path fill-rule="evenodd" clip-rule="evenodd" d="M0.108029 -0.0610266L0.256029 0.393641H0.733362L0.346695 0.673641L0.494695 1.12831L0.108029 0.848307L-0.278638 1.12831L-0.130638 0.673641L-0.517304 0.393641H-0.0399714L0.108029 -0.0610266Z" fill="white"/>
<path fill-rule="evenodd" clip-rule="evenodd" d="M2.80912 -0.0610266L2.95712 0.393641H3.43446L3.04779 0.673641L3.19579 1.12831L2.80912 0.848307L2.42246 1.12831L2.57046 0.673641L2.18379 0.393641H2.66112L2.80912 -0.0610266Z" fill="white"/>
<path fill-rule="evenodd" clip-rule="evenodd" d="M5.51155 -0.0610266L5.65955 0.393641H6.13688L5.75021 0.673641L5.89821 1.12831L5.51155 0.848307L5.12488 1.12831L5.27288 0.673641L4.88621 0.393641H5.36355L5.51155 -0.0610266Z" fill="white"/>
<path fill-rule="evenodd" clip-rule="evenodd" d="M1.45858 1.08698L1.60658 1.54165H2.08391L1.69724 1.82165L1.84524 2.27631L1.45858 1.99631L1.07191 2.27631L1.21991 1.82165L0.833243 1.54165H1.31058L1.45858 1.08698Z" fill="white"/>
<path fill-rule="evenodd" clip-rule="evenodd" d="M4.161 1.08698L4.309 1.54165H4.78633L4.39966 1.82165L4.54766 2.27631L4.161 1.99631L3.77433 2.27631L3.92233 1.82165L3.53566 1.54165H4.013L4.161 1.08698Z" fill="white"/>
<path fill-rule="evenodd" clip-rule="evenodd" d="M6.86342 1.08698L7.01142 1.54165H7.48875L7.10209 1.82165L7.25009 2.27631L6.86342 1.99631L6.47675 2.27631L6.62475 1.82165L6.23809 1.54165H6.71542L6.86342 1.08698Z" fill="white"/>
<path fill-rule="evenodd" clip-rule="evenodd" d="M0.108029 2.23631L0.256029 2.69098H0.733362L0.346695 2.97098L0.494695 3.42565L0.108029 3.14565L-0.278638 3.42565L-0.130638 2.97098L-0.517304 2.69098H-0.0399714L0.108029 2.23631Z" fill="white"/>
<path fill-rule="evenodd" clip-rule="evenodd" d="M2.80912 2.23631L2.95712 2.69098H3.43446L3.04779 2.97098L3.19579 3.42565L2.80912 3.14565L2.42246 3.42565L2.57046 2.97098L2.18379 2.69098H2.66112L2.80912 2.23631Z" fill="white"/>
<path fill-rule="evenodd" clip-rule="evenodd" d="M5.51155 2.23631L5.65955 2.69098H6.13688L5.75021 2.97098L5.89821 3.42565L5.51155 3.14565L5.12488 3.42565L5.27288 2.97098L4.88621 2.69098H5.36355L5.51155 2.23631Z" fill="white"/>
<path fill-rule="evenodd" clip-rule="evenodd" d="M1.45858 3.38431L1.60658 3.83898H2.08391L1.69724 4.11898L1.84524 4.57365L1.45858 4.29365L1.07191 4.57365L1.21991 4.11898L0.833243 3.83898H1.31058L1.45858 3.38431Z" fill="white"/>
<path fill-rule="evenodd" clip-rule="evenodd" d="M4.161 3.38431L4.309 3.83898H4.78633L4.39966 4.11898L4.54766 4.57365L4.161 4.29365L3.77433 4.57365L3.92233 4.11898L3.53566 3.83898H4.013L4.161 3.38431Z" fill="white"/>
<path fill-rule="evenodd" clip-rule="evenodd" d="M6.86342 3.38431L7.01142 3.83898H7.48875L7.10209 4.11898L7.25009 4.57365L6.86342 4.29365L6.47675 4.57365L6.62475 4.11898L6.23809 3.83898H6.71542L6.86342 3.38431Z" fill="white"/>
<path fill-rule="evenodd" clip-rule="evenodd" d="M0.108029 4.53365L0.256029 4.98831H0.733362L0.346695 5.26831L0.494695 5.72298L0.108029 5.44298L-0.278638 5.72298L-0.130638 5.26831L-0.517304 4.98831H-0.0399714L0.108029 4.53365Z" fill="white"/>
<path fill-rule="evenodd" clip-rule="evenodd" d="M2.80912 4.53365L2.95712 4.98831H3.43446L3.04779 5.26831L3.19579 5.72298L2.80912 5.44298L2.42246 5.72298L2.57046 5.26831L2.18379 4.98831H2.66112L2.80912 4.53365Z" fill="white"/>
<path fill-rule="evenodd" clip-rule="evenodd" d="M5.51155 4.53365L5.65955 4.98831H6.13688L5.75021 5.26831L5.89821 5.72298L5.51155 5.44298L5.12488 5.72298L5.27288 5.26831L4.88621 4.98831H5.36355L5.51155 4.53365Z" fill="white"/>
<path fill-rule="evenodd" clip-rule="evenodd" d="M1.45858 5.68164L1.60658 6.13631H2.08391L1.69724 6.41631L1.84524 6.87098L1.45858 6.59098L1.07191 6.87098L1.21991 6.41631L0.833243 6.13631H1.31058L1.45858 5.68164Z" fill="white"/>
<path fill-rule="evenodd" clip-rule="evenodd" d="M4.161 5.68164L4.309 6.13631H4.78633L4.39966 6.41631L4.54766 6.87098L4.161 6.59098L3.77433 6.87098L3.92233 6.41631L3.53566 6.13631H4.013L4.161 5.68164Z" fill="white"/>
<path fill-rule="evenodd" clip-rule="evenodd" d="M6.86342 5.68164L7.01142 6.13631H7.48875L7.10209 6.41631L7.25009 6.87098L6.86342 6.59098L6.47675 6.87098L6.62475 6.41631L6.23809 6.13631H6.71542L6.86342 5.68164Z" fill="white"/>
</g>
</svg>
