<svg width="26" height="24" viewBox="0 0 26 24" fill="none" xmlns="http://www.w3.org/2000/svg">
<rect width="26" height="24" rx="12" fill="#F2F3F6"/>
<path fill-rule="evenodd" clip-rule="evenodd" d="M13.4192 18V16.6784C14.236 16.6258 14.9421 16.446 15.5376 16.1392C16.5125 15.6395 17 14.8373 17 13.7326C17 12.8953 16.6443 12.2466 15.9329 11.7863C15.5007 11.5101 14.6576 11.1923 13.4033 10.8329V8.32767C13.9303 8.35836 14.2939 8.52932 14.4942 8.84055C14.6101 9.02027 14.6892 9.30521 14.7313 9.69534H16.8103C16.7787 8.64329 16.3176 7.88274 15.427 7.4137C14.9369 7.12 14.2623 6.94466 13.4033 6.88767V6H12.6524V6.87452C12.1149 6.90959 11.7065 6.96438 11.4272 7.0389C10.9687 7.15726 10.5524 7.37205 10.1782 7.68329C9.88837 7.92438 9.66309 8.21151 9.50236 8.54466C9.34163 8.87781 9.26127 9.24822 9.26127 9.65589C9.26127 10.274 9.46811 10.8022 9.88179 11.2405C10.2955 11.6789 11.0056 12.0208 12.0121 12.2663L12.6524 12.4241V15.2318C12.0516 15.1441 11.6485 14.9534 11.443 14.6597C11.3112 14.4712 11.2085 14.1008 11.1347 13.5485H9.00041C8.9846 14.7627 9.42726 15.6219 10.3284 16.126C10.8396 16.4066 11.6142 16.5951 12.6524 16.6915V18H13.4192ZM12.6524 10.6488C12.2677 10.5479 11.9831 10.4384 11.7987 10.32C11.4667 10.1052 11.3007 9.8137 11.3007 9.44548C11.3007 9.10794 11.4114 8.84164 11.6327 8.64657C11.854 8.45151 12.1939 8.34959 12.6524 8.34082V10.6488ZM13.4033 12.6411V15.2121C13.8197 15.1682 14.1227 15.0893 14.3124 14.9753C14.6444 14.7737 14.8104 14.4252 14.8104 13.9299C14.8104 13.5529 14.6549 13.2548 14.344 13.0356C14.1596 12.9085 13.846 12.777 13.4033 12.6411Z" fill="#272A37"/>
</svg>
